<svg width="135" height="24" viewBox="0 0 135 24" fill="none" xmlns="http://www.w3.org/2000/svg">
<path d="M7.632 1.368C7.52533 1.47467 7.33333 1.53867 7.056 1.56C6.8 1.58133 6.512 1.592 6.192 1.592C5.872 1.592 5.552 1.60267 5.232 1.624C4.912 1.64533 4.63467 1.70933 4.4 1.816C4.63467 3.65067 4.784 5.41067 4.848 7.096C4.93333 8.78133 4.976 10.4133 4.976 11.992C4.976 13.5707 4.95467 15.1173 4.912 16.632C4.89067 18.1467 4.88 19.6507 4.88 21.144C4.88 21.2507 4.89067 21.4107 4.912 21.624C4.95467 21.816 4.976 22.0187 4.976 22.232C4.976 22.424 4.93333 22.5947 4.848 22.744C4.784 22.8933 4.63467 22.968 4.4 22.968C4.16533 22.8613 4.016 22.7333 3.952 22.584C3.888 22.4133 3.86667 22.2427 3.888 22.072C3.93067 21.88 3.99467 21.7093 4.08 21.56C4.18667 21.3893 4.29333 21.2507 4.4 21.144C4.4 19.6507 4.37867 18.104 4.336 16.504C4.29333 14.904 4.24 13.2827 4.176 11.64C4.112 9.99733 4.05867 8.35467 4.016 6.712C3.97333 5.048 3.952 3.416 3.952 1.816C3.71733 1.816 3.408 1.83733 3.024 1.88C2.66133 1.92267 2.288 1.96533 1.904 2.008C1.54133 2.02933 1.2 2.02933 0.88 2.008C0.581333 1.98667 0.378667 1.92267 0.272 1.816C0.272 1.58133 0.346667 1.432 0.496 1.368C0.645334 1.28267 0.837334 1.24 1.072 1.24C1.30667 1.24 1.552 1.26133 1.808 1.304C2.08533 1.34667 2.34133 1.368 2.576 1.368C3.25867 1.368 3.94133 1.29333 4.624 1.144C5.328 0.973332 6.02133 0.887999 6.704 0.887999C6.832 0.887999 6.94933 0.877332 7.056 0.855999C7.16267 0.813333 7.25867 0.792 7.344 0.792C7.42933 0.792 7.49333 0.834666 7.536 0.919998C7.6 0.983999 7.632 1.13333 7.632 1.368ZM20.848 1.048C20.976 1.15466 21.0187 1.24 20.976 1.304C20.9547 1.368 20.9013 1.432 20.816 1.496C20.7307 1.56 20.6347 1.624 20.528 1.688C20.4427 1.752 20.4 1.848 20.4 1.976C20.4 3.72533 20.4213 5.42133 20.464 7.064C20.5067 8.70667 20.56 10.3493 20.624 11.992C20.688 13.6133 20.7413 15.2453 20.784 16.888C20.8267 18.5307 20.848 20.2267 20.848 21.976C21.0827 21.976 21.296 21.9973 21.488 22.04C21.7013 22.0613 21.808 22.1893 21.808 22.424C21.808 22.6587 21.68 22.808 21.424 22.872C21.1893 22.936 20.912 22.9467 20.592 22.904C20.272 22.84 19.952 22.7333 19.632 22.584C19.3333 22.4133 19.1307 22.2107 19.024 21.976C19.024 21.8693 19.0667 21.8053 19.152 21.784C19.2587 21.7627 19.3867 21.7733 19.536 21.816C19.6853 21.8373 19.8347 21.8693 19.984 21.912C20.1333 21.9547 20.272 21.976 20.4 21.976C20.4 18.6907 20.3147 15.352 20.144 11.96C19.9947 8.568 19.92 5.24 19.92 1.976C19.8133 1.848 19.6747 1.784 19.504 1.784C19.3547 1.76267 19.2053 1.752 19.056 1.752C18.9067 1.752 18.7787 1.74133 18.672 1.72C18.5867 1.69867 18.544 1.624 18.544 1.496C18.672 1.38933 18.864 1.28267 19.12 1.176C19.376 1.06933 19.632 0.983999 19.888 0.919998C20.144 0.855999 20.368 0.834666 20.56 0.855999C20.752 0.855999 20.848 0.919999 20.848 1.048ZM38.928 1.304C38.5653 1.304 38.2027 1.31467 37.84 1.336C37.4773 1.336 37.136 1.38933 36.816 1.496C36.496 1.58133 36.1867 1.73067 35.888 1.944C35.5893 2.136 35.3227 2.41333 35.088 2.776C34.5973 3.37333 34.224 4.23733 33.968 5.368C33.712 6.47733 33.5307 7.69333 33.424 9.016C33.3387 10.3387 33.3173 11.6827 33.36 13.048C33.4027 14.4133 33.488 15.64 33.616 16.728C33.744 17.4533 33.904 18.1467 34.096 18.808C34.3093 19.448 34.576 20.0133 34.896 20.504C35.2373 20.9733 35.6533 21.3573 36.144 21.656C36.6347 21.9333 37.232 22.072 37.936 22.072C38.064 22.072 38.192 22.0507 38.32 22.008C38.4693 21.9653 38.6293 21.9333 38.8 21.912C38.992 21.8693 39.2053 21.8587 39.44 21.88C39.696 21.88 40.0053 21.944 40.368 22.072C39.7493 22.5413 39.0987 22.8187 38.416 22.904C37.7333 22.9893 37.072 22.9147 36.432 22.68C35.8133 22.424 35.248 22.04 34.736 21.528C34.2453 20.9947 33.872 20.3653 33.616 19.64C33.616 19.4053 33.5307 19.064 33.36 18.616C33.2107 18.168 33.136 17.6987 33.136 17.208C32.9013 15.8853 32.752 14.4347 32.688 12.856C32.6453 11.256 32.6987 9.72 32.848 8.248C32.9973 6.776 33.2533 5.45333 33.616 4.28C33.9787 3.10667 34.4693 2.27467 35.088 1.784C35.3227 1.54933 35.632 1.32533 36.016 1.112C36.4 0.898666 36.784 0.749333 37.168 0.664C37.5733 0.557333 37.936 0.546666 38.256 0.631998C38.576 0.717332 38.8 0.941332 38.928 1.304ZM55.632 1.368C55.5253 1.47467 55.3333 1.53867 55.056 1.56C54.8 1.58133 54.512 1.592 54.192 1.592C53.872 1.592 53.552 1.60267 53.232 1.624C52.912 1.64533 52.6347 1.70933 52.4 1.816C52.6347 3.65067 52.784 5.41067 52.848 7.096C52.9333 8.78133 52.976 10.4133 52.976 11.992C52.976 13.5707 52.9547 15.1173 52.912 16.632C52.8907 18.1467 52.88 19.6507 52.88 21.144C52.88 21.2507 52.8907 21.4107 52.912 21.624C52.9547 21.816 52.976 22.0187 52.976 22.232C52.976 22.424 52.9333 22.5947 52.848 22.744C52.784 22.8933 52.6347 22.968 52.4 22.968C52.1653 22.8613 52.016 22.7333 51.952 22.584C51.888 22.4133 51.8667 22.2427 51.888 22.072C51.9307 21.88 51.9947 21.7093 52.08 21.56C52.1867 21.3893 52.2933 21.2507 52.4 21.144C52.4 19.6507 52.3787 18.104 52.336 16.504C52.2933 14.904 52.24 13.2827 52.176 11.64C52.112 9.99733 52.0587 8.35467 52.016 6.712C51.9733 5.048 51.952 3.416 51.952 1.816C51.7173 1.816 51.408 1.83733 51.024 1.88C50.6613 1.92267 50.288 1.96533 49.904 2.008C49.5413 2.02933 49.2 2.02933 48.88 2.008C48.5813 1.98667 48.3787 1.92267 48.272 1.816C48.272 1.58133 48.3467 1.432 48.496 1.368C48.6453 1.28267 48.8373 1.24 49.072 1.24C49.3067 1.24 49.552 1.26133 49.808 1.304C50.0853 1.34667 50.3413 1.368 50.576 1.368C51.2587 1.368 51.9413 1.29333 52.624 1.144C53.328 0.973332 54.0213 0.887999 54.704 0.887999C54.832 0.887999 54.9493 0.877332 55.056 0.855999C55.1627 0.813333 55.2587 0.792 55.344 0.792C55.4293 0.792 55.4933 0.834666 55.536 0.919998C55.6 0.983999 55.632 1.13333 55.632 1.368ZM67.312 0.759998C67.8027 1.592 68.208 2.50933 68.528 3.512C68.8693 4.49333 69.1893 5.496 69.488 6.52C69.7867 7.52267 70.096 8.52533 70.416 9.528C70.7573 10.5093 71.1627 11.416 71.632 12.248C71.632 13.208 71.728 14.1467 71.92 15.064C72.1333 15.96 72.3787 16.8667 72.656 17.784C72.9333 18.68 73.2 19.5867 73.456 20.504C73.7333 21.4 73.9253 22.328 74.032 23.288C73.7973 23.16 73.616 22.9893 73.488 22.776C73.36 22.5627 73.264 22.3387 73.2 22.104C73.136 21.8693 73.0933 21.6453 73.072 21.432C73.072 21.1973 73.072 21.016 73.072 20.888C72.6027 19.4373 72.144 18.0187 71.696 16.632C71.2693 15.2453 70.9387 13.9547 70.704 12.76C70.2133 12.632 69.744 12.536 69.296 12.472C68.8693 12.408 68.432 12.3653 67.984 12.344C67.536 12.3013 67.0667 12.28 66.576 12.28C66.0853 12.2587 65.5413 12.248 64.944 12.248L63.504 20.888C63.376 21.016 63.28 21.1867 63.216 21.4C63.152 21.6133 63.088 21.8267 63.024 22.04C62.96 22.2533 62.896 22.4347 62.832 22.584C62.768 22.7333 62.672 22.808 62.544 22.808C62.544 21.976 62.6187 21.1653 62.768 20.376C62.9387 19.5653 63.12 18.7547 63.312 17.944C63.5253 17.1333 63.7387 16.312 63.952 15.48C64.1653 14.6267 64.336 13.72 64.464 12.76C64.592 11.672 64.688 10.616 64.752 9.592C64.8373 8.568 64.9333 7.56533 65.04 6.584C65.168 5.58133 65.328 4.6 65.52 3.64C65.7333 2.68 66.0213 1.72 66.384 0.759998H67.312ZM64.944 11.8H70.192C69.7227 9.85867 69.232 8.03467 68.72 6.328C68.208 4.62133 67.5893 2.92533 66.864 1.24C66.3733 2.92533 65.9893 4.62133 65.712 6.328C65.4347 8.03467 65.1787 9.85867 64.944 11.8ZM86.928 1.304C86.5653 1.304 86.2027 1.31467 85.84 1.336C85.4773 1.336 85.136 1.38933 84.816 1.496C84.496 1.58133 84.1867 1.73067 83.888 1.944C83.5893 2.136 83.3227 2.41333 83.088 2.776C82.5973 3.37333 82.224 4.23733 81.968 5.368C81.712 6.47733 81.5307 7.69333 81.424 9.016C81.3387 10.3387 81.3173 11.6827 81.36 13.048C81.4027 14.4133 81.488 15.64 81.616 16.728C81.744 17.4533 81.904 18.1467 82.096 18.808C82.3093 19.448 82.576 20.0133 82.896 20.504C83.2373 20.9733 83.6533 21.3573 84.144 21.656C84.6347 21.9333 85.232 22.072 85.936 22.072C86.064 22.072 86.192 22.0507 86.32 22.008C86.4693 21.9653 86.6293 21.9333 86.8 21.912C86.992 21.8693 87.2053 21.8587 87.44 21.88C87.696 21.88 88.0053 21.944 88.368 22.072C87.7493 22.5413 87.0987 22.8187 86.416 22.904C85.7333 22.9893 85.072 22.9147 84.432 22.68C83.8133 22.424 83.248 22.04 82.736 21.528C82.2453 20.9947 81.872 20.3653 81.616 19.64C81.616 19.4053 81.5307 19.064 81.36 18.616C81.2107 18.168 81.136 17.6987 81.136 17.208C80.9013 15.8853 80.752 14.4347 80.688 12.856C80.6453 11.256 80.6987 9.72 80.848 8.248C80.9973 6.776 81.2533 5.45333 81.616 4.28C81.9787 3.10667 82.4693 2.27467 83.088 1.784C83.3227 1.54933 83.632 1.32533 84.016 1.112C84.4 0.898666 84.784 0.749333 85.168 0.664C85.5733 0.557333 85.936 0.546666 86.256 0.631998C86.576 0.717332 86.8 0.941332 86.928 1.304ZM103.632 1.368C103.525 1.47467 103.333 1.53867 103.056 1.56C102.8 1.58133 102.512 1.592 102.192 1.592C101.872 1.592 101.552 1.60267 101.232 1.624C100.912 1.64533 100.635 1.70933 100.4 1.816C100.635 3.65067 100.784 5.41067 100.848 7.096C100.933 8.78133 100.976 10.4133 100.976 11.992C100.976 13.5707 100.955 15.1173 100.912 16.632C100.891 18.1467 100.88 19.6507 100.88 21.144C100.88 21.2507 100.891 21.4107 100.912 21.624C100.955 21.816 100.976 22.0187 100.976 22.232C100.976 22.424 100.933 22.5947 100.848 22.744C100.784 22.8933 100.635 22.968 100.4 22.968C100.165 22.8613 100.016 22.7333 99.952 22.584C99.888 22.4133 99.8667 22.2427 99.888 22.072C99.9307 21.88 99.9947 21.7093 100.08 21.56C100.187 21.3893 100.293 21.2507 100.4 21.144C100.4 19.6507 100.379 18.104 100.336 16.504C100.293 14.904 100.24 13.2827 100.176 11.64C100.112 9.99733 100.059 8.35467 100.016 6.712C99.9733 5.048 99.952 3.416 99.952 1.816C99.7173 1.816 99.408 1.83733 99.024 1.88C98.6613 1.92267 98.288 1.96533 97.904 2.008C97.5413 2.02933 97.2 2.02933 96.88 2.008C96.5813 1.98667 96.3787 1.92267 96.272 1.816C96.272 1.58133 96.3467 1.432 96.496 1.368C96.6453 1.28267 96.8373 1.24 97.072 1.24C97.3067 1.24 97.552 1.26133 97.808 1.304C98.0853 1.34667 98.3413 1.368 98.576 1.368C99.2587 1.368 99.9413 1.29333 100.624 1.144C101.328 0.973332 102.021 0.887999 102.704 0.887999C102.832 0.887999 102.949 0.877332 103.056 0.855999C103.163 0.813333 103.259 0.792 103.344 0.792C103.429 0.792 103.493 0.834666 103.536 0.919998C103.6 0.983999 103.632 1.13333 103.632 1.368ZM116.112 0.952H117.52C117.627 0.952 117.712 1.00533 117.776 1.112C117.84 1.21867 117.904 1.34667 117.968 1.496C118.032 1.64533 118.096 1.80533 118.16 1.976C118.224 2.12533 118.309 2.25333 118.416 2.36C118.885 2.85067 119.344 3.50133 119.792 4.312C120.24 5.12267 120.581 5.89067 120.816 6.616V12.248C120.816 13.1867 120.795 14.0293 120.752 14.776C120.709 15.5227 120.571 16.248 120.336 16.952C120.336 17.528 120.229 18.1253 120.016 18.744C119.803 19.3627 119.547 19.9387 119.248 20.472C118.971 21.0053 118.661 21.464 118.32 21.848C118 22.232 117.733 22.488 117.52 22.616C116.923 22.8507 116.357 22.904 115.824 22.776C115.312 22.6267 114.853 22.392 114.448 22.072C114.043 21.7307 113.691 21.3573 113.392 20.952C113.115 20.5253 112.923 20.1307 112.816 19.768C112.581 18.9787 112.357 18.0827 112.144 17.08C111.952 16.056 111.792 15 111.664 13.912C111.557 12.8027 111.483 11.6827 111.44 10.552C111.419 9.4 111.461 8.312 111.568 7.288C111.696 6.264 111.888 5.32533 112.144 4.472C112.421 3.61867 112.795 2.91467 113.264 2.36C113.392 2.12533 113.563 1.92267 113.776 1.752C113.989 1.58133 114.224 1.44267 114.48 1.336C114.757 1.208 115.035 1.112 115.312 1.048C115.611 0.983999 115.877 0.952 116.112 0.952ZM119.856 16.952V14.584C119.984 13.7733 120.069 12.8667 120.112 11.864C120.176 10.8613 120.187 9.88 120.144 8.92C120.123 7.93867 120.048 7.032 119.92 6.2C119.792 5.368 119.611 4.71733 119.376 4.248C119.248 4.01333 119.077 3.736 118.864 3.416C118.651 3.096 118.405 2.78667 118.128 2.488C117.872 2.18933 117.605 1.944 117.328 1.752C117.051 1.53867 116.795 1.432 116.56 1.432C116.325 1.432 116.037 1.48533 115.696 1.592C115.376 1.69867 115.056 1.848 114.736 2.04C114.416 2.21067 114.117 2.41333 113.84 2.648C113.584 2.86133 113.392 3.08533 113.264 3.32C112.795 4.024 112.453 4.84533 112.24 5.784C112.048 6.72267 111.941 7.71467 111.92 8.76C111.92 9.80533 111.984 10.8933 112.112 12.024C112.24 13.1333 112.4 14.2107 112.592 15.256C112.784 16.3013 112.987 17.2933 113.2 18.232C113.413 19.1707 113.595 19.992 113.744 20.696C114.213 21.2507 114.672 21.6133 115.12 21.784C115.589 21.9333 116.037 21.944 116.464 21.816C116.891 21.688 117.285 21.4533 117.648 21.112C118.032 20.7707 118.373 20.376 118.672 19.928C118.971 19.4587 119.216 18.968 119.408 18.456C119.621 17.9227 119.771 17.4213 119.856 16.952ZM132.752 1.528C132.389 1.528 132.048 1.528 131.728 1.528C131.429 1.528 131.12 1.54933 130.8 1.592C130.48 1.61333 130.128 1.656 129.744 1.72C129.381 1.784 128.965 1.86933 128.496 1.976C128.496 3.40533 128.571 4.93067 128.72 6.552C128.891 8.152 128.976 9.784 128.976 11.448C129.211 11.576 129.467 11.6507 129.744 11.672C130.021 11.6933 130.309 11.704 130.608 11.704C130.907 11.704 131.195 11.7147 131.472 11.736C131.771 11.736 132.037 11.8 132.272 11.928C132.144 12.1627 131.963 12.3227 131.728 12.408C131.515 12.472 131.259 12.504 130.96 12.504C130.683 12.504 130.363 12.4827 130 12.44C129.659 12.3973 129.317 12.376 128.976 12.376C129.083 13.3147 129.147 14.1893 129.168 15C129.189 15.7893 129.2 16.568 129.2 17.336C129.2 18.104 129.211 18.8933 129.232 19.704C129.253 20.4933 129.317 21.3573 129.424 22.296C129.787 22.296 130.171 22.2747 130.576 22.232C130.981 22.1893 131.387 22.1573 131.792 22.136C132.219 22.0933 132.624 22.0827 133.008 22.104C133.413 22.1253 133.797 22.1893 134.16 22.296C134.032 22.5307 133.851 22.6907 133.616 22.776C133.403 22.8613 133.147 22.904 132.848 22.904C132.571 22.904 132.251 22.8827 131.888 22.84C131.547 22.7973 131.205 22.776 130.864 22.776C130.736 22.776 130.587 22.7973 130.416 22.84C130.245 22.8827 130.075 22.9253 129.904 22.968C129.733 22.9893 129.563 23 129.392 23C129.221 22.9787 129.083 22.904 128.976 22.776C128.741 19.2133 128.517 15.672 128.304 12.152C128.112 8.632 128.016 5.09067 128.016 1.528C128.08 1.528 128.155 1.50667 128.24 1.464C128.304 1.42133 128.357 1.37867 128.4 1.336C128.464 1.272 128.496 1.176 128.496 1.048C128.837 1.048 129.232 1.00533 129.68 0.919998C130.128 0.834666 130.555 0.781333 130.96 0.759998C131.387 0.717332 131.76 0.749332 132.08 0.855999C132.4 0.941332 132.624 1.16533 132.752 1.528Z" fill="black"/>
</svg>
